<?xml version="1.0" encoding="UTF-8" standalone="no"?>
<svg width="579px" height="408px" viewBox="0 0 579 408" version="1.1" xmlns="http://www.w3.org/2000/svg" xmlns:xlink="http://www.w3.org/1999/xlink">
    <!-- Generator: Sketch 3.8.3 (29802) - http://www.bohemiancoding.com/sketch -->
    <title>@ AMF logo 1c black</title>
    <desc>Created with Sketch.</desc>
    <defs>
        <polygon id="path-1" points="0.267230769 0.783586957 0.267230769 29.4791304 29.8808538 29.4791304 29.8808538 0.783586957 0.267230769 0.783586957"></polygon>
    </defs>
    <g id="Welcome" stroke="none" stroke-width="1" fill="none" fill-rule="evenodd">
        <g id="Desktop-HD" transform="translate(-431.000000, -239.000000)">
            <g id="@-AMF-logo-1c-black" transform="translate(431.000000, 239.000000)">
                <g id="Group-3" transform="translate(0.000000, 125.782609)">
                    <mask id="mask-2" fill="white">
                        <use xlink:href="#path-1"></use>
                    </mask>
                    <g id="Clip-2"></g>
                    <path d="M23.4673154,7.00934783 C23.6142923,6.43891304 23.6900077,5.94423913 23.6900077,5.52532609 C23.6900077,5.14206522 23.6365615,4.73206522 23.5296692,4.29086957 C23.4227769,3.84967391 23.2357154,3.43521739 22.9640308,3.06086957 C22.6878923,2.6776087 22.3226769,2.35228261 21.8550231,2.07597826 C21.3918231,1.80413043 20.7861,1.66597826 20.0244923,1.66597826 C18.6348923,1.66597826 17.2764692,2.05815217 15.9536769,2.83804348 C14.6264308,3.61347826 13.3793538,4.63847826 12.2213538,5.90413043 C11.0633538,7.16532609 10.0033385,8.61369565 9.03685385,10.231413 C8.06591538,11.853587 7.23304615,13.4980435 6.53824615,15.1647826 C5.84344615,16.8270652 5.30453077,18.4403261 4.92595385,19.9956522 C4.54737692,21.5554348 4.36031538,22.923587 4.36031538,24.1045652 C4.36031538,25.4548913 4.62309231,26.5467391 5.14864615,27.3934783 C5.6742,28.2357609 6.55160769,28.6546739 7.77196154,28.6546739 C8.99231538,28.6546739 10.2349385,28.2803261 11.4998308,27.5182609 C12.7602692,26.7606522 13.9182692,25.8559783 14.9693769,24.7997826 C16.0249385,23.7480435 16.9290692,22.6963043 17.6862231,21.6401087 C18.4478308,20.5883696 18.9288462,19.763913 19.1381769,19.1756522 L22.4874692,9.88380435 C22.9952077,8.53347826 23.3158846,7.57532609 23.4673154,7.00934783 L23.4673154,7.00934783 Z M22.0153615,23.9173913 C21.7392231,24.9290217 21.6056077,25.8336957 21.6056077,26.631413 C21.6056077,27.7277174 22.1311615,28.2803261 23.1822692,28.2803261 C24.0240462,28.2803261 24.7812,28.0352174 25.4581846,27.5494565 C26.1307154,27.0681522 26.7141692,26.52 27.1951846,25.905 C27.6762,25.2944565 28.0815,24.683913 28.3932692,24.0733696 C28.7094923,23.4628261 28.9321846,23.0305435 29.0568923,22.7809783 L29.8808538,23.2221739 C29.6670692,23.6856522 29.3508462,24.273913 28.9321846,24.991413 C28.5090692,25.7044565 27.9612462,26.3907609 27.2887154,27.041413 C26.6161846,27.7009783 25.8323077,28.2669565 24.9504462,28.7482609 C24.0685846,29.2340217 23.0352923,29.4791304 21.8550231,29.4791304 C19.0802769,29.4791304 17.6862231,28.2134783 17.6862231,25.6866304 C17.6862231,25.3925 17.7485769,24.871087 17.8777385,24.1357609 C18.0024462,23.4004348 18.1716923,22.736413 18.3810231,22.1481522 L18.2563154,22.1481522 C17.6684077,22.8656522 16.9914231,23.6544565 16.2342692,24.5190217 C15.4771154,25.3791304 14.6264308,26.1813043 13.6733077,26.9166304 C12.7290923,27.656413 11.6868923,28.2669565 10.5511615,28.7482609 C9.41097692,29.2340217 8.15053846,29.4791304 6.76093846,29.4791304 C5.87462308,29.4791304 5.02393846,29.3231522 4.20443077,29.0067391 C3.38046923,28.6858696 2.65449231,28.2045652 2.02204615,27.5494565 C1.3896,26.8988043 0.895223077,26.0654348 0.538915385,25.0538043 C0.182607692,24.0421739 0,22.838913 0,21.4484783 C0,19.763913 0.338492308,18.0793478 1.01102308,16.3947826 C1.68355385,14.7102174 2.55650769,13.0969565 3.62988462,11.5594565 C4.70771538,10.0219565 5.94588462,8.60032609 7.36220769,7.29456522 C8.76962308,5.98880435 10.2037615,4.84793478 11.6557154,3.88086957 C13.1076692,2.90934783 14.5373538,2.15173913 15.9536769,1.60804348 C17.3610923,1.0598913 18.6126231,0.783586957 19.7082692,0.783586957 C20.9731615,0.783586957 22.0465385,1.1401087 22.9284,1.8576087 C23.8147154,2.5751087 24.2556462,3.5198913 24.2556462,4.70086957 L24.3803538,4.70086957 L25.4581846,1.60804348 L29.8808538,1.60804348 L22.9952077,20.7532609 C22.6166308,21.8495652 22.2870462,22.9057609 22.0153615,23.9173913 L22.0153615,23.9173913 Z" id="Fill-1" fill="#1A1918" mask="url(#mask-2)"></path>
                </g>
                <path d="M50.7560308,150.742826 C50.0612308,151.562826 49.2595385,152.311522 48.3509538,152.984457 C47.4468231,153.657391 46.4046231,154.205543 45.2288077,154.628913 C44.0485385,155.047826 42.7168385,155.261739 41.2470692,155.261739 C39.6882231,155.261739 38.2986231,155.007717 37.0782692,154.50413 C35.8534615,153.996087 34.8335308,153.314239 34.0140231,152.449674 C33.1945154,151.585109 32.5620692,150.582391 32.1211385,149.445978 C31.6802077,148.309565 31.4575154,147.084022 31.4575154,145.778261 C31.4575154,143.630217 31.9608,141.428696 32.9718231,139.173696 C33.9828462,136.918696 35.3323615,134.855326 37.0159154,132.97913 C38.6994692,131.107391 40.6279846,129.569891 42.7970077,128.36663 C44.9660308,127.16337 47.2063154,126.566196 49.5223154,126.566196 C50.2349308,126.566196 50.9430923,126.65087 51.6378923,126.820217 C52.3326923,126.985109 52.9517769,127.261413 53.4996,127.640217 C54.0474231,128.019022 54.5017154,128.535978 54.8580231,129.18663 C55.2187846,129.837283 55.3969385,130.652826 55.3969385,131.619891 C55.3969385,133.014783 55.0495385,133.919457 54.3547385,134.342826 C53.6599385,134.761739 52.9339615,134.971196 52.1768077,134.971196 C51.4152,134.971196 50.8896462,134.810761 50.5956923,134.498804 C50.3017385,134.182391 50.1503077,133.8125 50.1503077,133.393587 C50.1503077,132.885543 50.2349308,132.475543 50.4041769,132.15913 C50.5734231,131.842717 50.7738462,131.561957 51.0054462,131.307935 C51.2370462,131.053913 51.4374692,130.768696 51.6067154,130.452283 C51.7715077,130.13587 51.8605846,129.72587 51.8605846,129.217826 C51.8605846,128.549348 51.6156231,128.081413 51.1346077,127.831848 C50.6491385,127.577826 49.9855154,127.448587 49.1437385,127.448587 C47.7942231,127.448587 46.5293308,127.787283 45.3535154,128.460217 C44.1687923,129.137609 43.0865077,130.03337 42.1022077,131.151957 C41.109,132.266087 40.2360462,133.540652 39.4788923,134.971196 C38.7172846,136.406196 38.0670231,137.881304 37.5192,139.396522 C36.9713769,140.911739 36.5616231,142.40913 36.2899385,143.884239 C36.0138,145.359348 35.8801846,146.705217 35.8801846,147.930761 C35.8801846,149.740109 36.3923769,151.277609 37.4256692,152.543261 C38.4589615,153.808913 40.0489846,154.437283 42.1957385,154.437283 C43.3760077,154.437283 44.4582923,154.218913 45.4470462,153.773261 C46.4358,153.332065 47.3310231,152.775 48.1327154,152.102065 C48.9344077,151.424674 49.6292077,150.702717 50.2171154,149.91837 C50.8094769,149.142935 51.2904923,148.434348 51.6690692,147.801522 L52.5509308,148.309565 C52.0521,149.107283 51.4463769,149.91837 50.7560308,150.742826" id="Fill-4" fill="#1A1918"></path>
                <path d="M69.4310077,121.196087 L67.1595462,127.390652 L74.0407385,127.390652 L73.7868692,128.268587 L66.9056769,128.268587 L59.7038077,148.371957 C59.4900231,149.004783 59.2851462,149.659891 59.0713615,150.32837 C58.8620308,151.005761 58.7551385,151.674239 58.7551385,152.356087 C58.7551385,152.984457 58.9110231,153.488043 59.2272462,153.871304 C59.5479231,154.250109 60.0601154,154.437283 60.7771846,154.437283 C61.5343385,154.437283 62.2514077,154.205543 62.9239385,153.742065 C63.5964692,153.278587 64.2066462,152.743804 64.7544692,152.133261 C65.3067462,151.518261 65.7699462,150.898804 66.1440692,150.265978 C66.5271,149.637609 66.7987846,149.129565 66.9680308,148.750761 L67.7251846,149.062717 C67.5559385,149.40587 67.2798,149.91837 66.9056769,150.618043 C66.5271,151.308804 66.0193615,152.004022 65.3869154,152.699239 C64.7544692,153.398913 63.9661385,153.996087 63.0174692,154.50413 C62.0732538,155.007717 60.9419769,155.261739 59.6414538,155.261739 C58.0380692,155.261739 56.8399846,154.869565 56.0382923,154.089674 C55.2366,153.314239 54.8402077,152.373913 54.8402077,151.277609 C54.8402077,150.435326 54.9960923,149.477174 55.3123154,148.403152 C55.6285385,147.32913 55.9536692,146.348696 56.2921615,145.466304 L62.4830077,128.268587 L56.7954462,128.268587 L57.0493154,127.390652 L62.7324231,127.390652 L65.0083385,121.196087 L69.4310077,121.196087" id="Fill-5" fill="#1A1918"></path>
                <path d="M81.5365615,118.085435 C82.1022,117.515 82.8059077,117.229783 83.6476846,117.229783 C84.4894615,117.229783 85.1931692,117.515 85.7588077,118.085435 C86.3244462,118.65587 86.6050385,119.36 86.6050385,120.202283 C86.6050385,121.049022 86.3244462,121.753152 85.7588077,122.31913 C85.1931692,122.889565 84.4894615,123.174783 83.6476846,123.174783 C82.8059077,123.174783 82.1022,122.889565 81.5365615,122.31913 C80.9664692,121.753152 80.6814231,121.049022 80.6814231,120.202283 C80.6814231,119.36 80.9664692,118.65587 81.5365615,118.085435 L81.5365615,118.085435 Z M72.3972692,128.268587 L72.6511385,127.390652 L82.6945615,127.390652 L75.2388231,148.813152 C75.0294923,149.445978 74.8201615,150.092174 74.6108308,150.742826 C74.4015,151.393478 74.2946077,152.017391 74.2946077,152.605652 C74.2946077,153.113696 74.4415846,153.541522 74.7355385,153.9025 C75.0294923,154.263478 75.4704231,154.437283 76.0627846,154.437283 C76.7353154,154.437283 77.3989385,154.205543 78.0536538,153.742065 C78.7039154,153.278587 79.3051846,152.743804 79.8530077,152.133261 C80.3963769,151.518261 80.8640308,150.898804 81.2426077,150.265978 C81.6211846,149.637609 81.8928692,149.129565 82.0621154,148.750761 L82.8237231,149.062717 C82.6544769,149.40587 82.3872462,149.91837 82.0309385,150.618043 C81.6746308,151.308804 81.1802538,152.004022 80.5478077,152.699239 C79.9153615,153.398913 79.1359385,153.996087 78.2095385,154.50413 C77.2831385,155.007717 76.1874923,155.261739 74.9270538,155.261739 C73.5374538,155.261739 72.4329,154.976522 71.6089385,154.406087 C70.7894308,153.840109 70.3796769,152.8775 70.3796769,151.53163 C70.3796769,150.81413 70.5043846,150.025326 70.7582538,149.165217 C71.0121231,148.296196 71.2615385,147.507391 71.5154077,146.789891 L78.0224769,128.268587 L72.3972692,128.268587 L72.3972692,128.268587 Z" id="Fill-6" fill="#1A1918"></path>
                <path d="M88.7473385,151.972826 C88.7473385,151.259783 88.6627154,150.63587 88.4979231,150.105543 C88.3331308,149.58413 88.1416154,149.022609 87.9278308,148.434348 L86.6005846,144.76663 C86.2220077,143.799565 85.8790615,142.805761 85.5628385,141.798587 C85.2510692,140.791413 85.0951846,139.819891 85.0951846,138.892935 C85.0951846,136.949891 85.7721692,135.002391 87.1395,133.045978 C88.5068308,131.080652 90.2839154,129.155435 92.4752077,127.261413 L93.8024538,126.125 L94.3680923,126.75337 C94.1186769,127.051957 93.7089231,127.479783 93.1388308,128.054674 C92.5731923,128.620652 92.0031,129.3025 91.4330077,130.10913 C90.8629154,130.906848 90.3640846,131.802609 89.9187,132.791957 C89.4777692,133.781304 89.2550769,134.846413 89.2550769,135.982826 C89.2550769,137.582717 89.4555,139.057826 89.8563462,140.408152 C90.2571923,141.754022 90.7515692,143.166739 91.3394769,144.637391 C91.7180538,145.653478 92.0253692,146.571522 92.2569692,147.387065 C92.4885692,148.211522 92.6221846,148.978043 92.6711769,149.7 C93.5931231,148.937935 94.7065846,148.037717 96.0160154,146.981522 C97.3209923,145.929783 98.5636154,144.788913 99.7438846,143.567826 C100.9197,142.346739 101.921815,141.032065 102.741323,139.614891 C103.560831,138.211087 103.975038,136.785 103.975038,135.35 C103.975038,134.382935 103.868146,133.59413 103.654362,132.97913 C103.449485,132.368587 103.204523,131.833804 102.928385,131.36587 C102.6567,130.906848 102.416192,130.465652 102.202408,130.042283 C101.993077,129.62337 101.886185,129.137609 101.886185,128.589457 C101.886185,127.871957 102.171231,127.355 102.741323,127.038587 C103.306962,126.722174 103.992854,126.566196 104.794546,126.566196 C106.856677,126.566196 107.894423,128.103696 107.894423,131.178696 C107.894423,132.56913 107.6361,133.932826 107.132815,135.256413 C106.625077,136.584457 105.974815,137.836739 105.173123,139.017717 C104.371431,140.198696 103.458392,141.326196 102.4251,142.400217 C101.396262,143.474239 100.371877,144.450217 99.3653077,145.337065 L96.1407231,148.117935 C95.1297,149.004783 94.2834692,149.677717 93.6153923,150.141196 C92.9428615,150.604674 92.2881462,151.152826 91.6557,151.781196 C90.9787154,152.458587 90.3997154,153.091413 89.9187,153.679674 C89.4332308,154.272391 89.0680154,154.798261 88.8141462,155.261739 L87.9901846,154.816087 C88.4979231,154.187717 88.7473385,153.238478 88.7473385,151.972826" id="Fill-7" fill="#1A1918"></path>
                <path d="M127.941185,128.335435 C127.4379,127.747174 126.591669,127.448587 125.406946,127.448587 C124.088608,127.448587 122.832623,127.831848 121.634538,128.589457 C120.436454,129.342609 119.349715,130.282935 118.383231,131.401522 C117.412292,132.520109 116.570515,133.718913 115.853446,135.002391 C115.140831,136.290326 114.593008,137.475761 114.214431,138.576522 C115.180915,138.74587 116.254292,138.826087 117.434562,138.826087 C118.948869,138.826087 120.383008,138.598804 121.732523,138.13087 C123.077585,137.667391 124.271215,137.061304 125.308962,136.299239 C126.346708,135.54163 127.170669,134.654783 127.780846,133.643152 C128.395477,132.635978 128.698338,131.579783 128.698338,130.483478 C128.698338,129.641196 128.444469,128.928152 127.941185,128.335435 L127.941185,128.335435 Z M127.687315,149.91837 C127.179577,150.702717 126.484777,151.478152 125.598462,152.258043 C124.707692,153.037935 123.612046,153.733152 122.329338,154.343696 C121.046631,154.954239 119.496692,155.261739 117.688431,155.261739 C115.875715,155.261739 114.3525,154.967609 113.109877,154.374891 C111.867254,153.78663 110.856231,153.029022 110.072354,152.102065 C109.297385,151.175109 108.727292,150.150109 108.370985,149.035978 C108.010223,147.917391 107.832069,146.834457 107.832069,145.778261 C107.832069,143.674783 108.348715,141.491087 109.382008,139.236087 C110.4153,136.985543 111.760362,134.922174 113.421646,133.045978 C115.087385,131.169783 116.966908,129.62337 119.073577,128.397826 C121.180246,127.176739 123.327,126.566196 125.531654,126.566196 C126.377885,126.566196 127.219662,126.659783 128.065892,126.851413 C128.907669,127.038587 129.664823,127.323804 130.341808,127.702609 C131.014338,128.081413 131.562162,128.567174 131.980823,129.155435 C132.403938,129.748152 132.613269,130.465652 132.613269,131.307935 C132.613269,132.444348 132.305954,133.442609 131.700231,134.31163 C131.090054,135.171739 130.297269,135.907065 129.330785,136.522065 C128.359846,137.132609 127.295377,137.649565 126.137377,138.068478 C124.970469,138.487391 123.834738,138.817174 122.743546,139.048913 C121.6479,139.280652 120.641331,139.45 119.7372,139.5525 C118.833069,139.663913 118.169446,139.712935 117.750785,139.712935 C117.033715,139.712935 116.338915,139.695109 115.666385,139.650543 C114.9894,139.605978 114.405946,139.543587 113.898208,139.458913 C113.435008,140.809239 113.043069,142.146196 112.7313,143.474239 C112.415077,144.802283 112.254738,146.20163 112.254738,147.676739 C112.254738,149.949565 112.842646,151.6475 114.027369,152.766087 C115.203185,153.880217 116.695223,154.437283 118.507938,154.437283 C119.857454,154.437283 121.046631,154.178804 122.079923,153.648478 C123.108762,153.122609 124.017346,152.498696 124.801223,151.781196 C125.5851,151.068152 126.239815,150.341739 126.769823,149.601957 C127.295377,148.86663 127.7274,148.287283 128.065892,147.863913 L128.823046,148.309565 C128.573631,148.603696 128.195054,149.142935 127.687315,149.91837 L127.687315,149.91837 Z" id="Fill-8" fill="#1A1918"></path>
                <path d="M314.566246,333.117065 C312.210162,333.117065 310.713669,330.973478 310.713669,325.393913 C310.713669,302.866196 317.358808,288.28 323.153262,280.984674 C326.582723,276.9025 330.016638,273.91663 333.869215,274.126087 L334.305692,274.117174 C337.516915,274.117174 340.091238,275.186739 341.805969,277.334783 C340.732592,284.839565 337.303131,297.505 335.160831,306.73 C327.6561,325.393913 318.432185,333.117065 314.566246,333.117065 L314.566246,333.117065 Z M548.811831,97.7325 C530.506523,123.504565 512.490715,140.706739 496.594938,152.405109 C493.312454,154.820543 490.119046,157.004239 487.032531,158.982935 C480.770423,162.989348 474.940338,166.144565 469.689254,168.6625 C468.598062,169.18837 467.560315,169.660761 466.522569,170.128696 C460.371808,172.486196 442.534154,179.331413 423.828,183.489348 C418.091446,184.763913 406.034885,187.758696 393.354785,190.410326 C464.153123,155.698478 555.546046,83.9975 577.944438,0.214891304 C555.247638,48.0422826 515.189746,78.7298913 470.375146,106.886196 C451.838238,118.531087 432.490731,129.743696 413.223392,141.553478 C418.193885,137.154891 423.618669,131.619891 428.700508,126.11163 C424.317923,128.339891 419.872985,130.501304 415.379054,132.609239 C409.018962,135.590652 402.560885,138.474022 396.067177,141.312826 C395.367923,141.620326 394.664215,141.918913 393.964962,142.221957 C395.871208,134.521087 397.870985,123.491196 396.067177,120.759348 C395.652969,124.168587 391.729131,135.006848 385.774338,145.773804 C359.149246,157.227065 332.323731,168.4575 308.918769,183.293261 C307.3332,181.942935 309.671469,178.957065 312.820338,174.152935 C320.699192,162.138152 350.103485,140.893913 350.103485,140.893913 C315.630715,156.010435 290.074546,181.893913 280.236,195.419457 C273.849185,204.203261 262.990708,218.878587 253.530738,240.6175 C253.187792,241.401848 252.867115,242.275326 252.528623,243.086413 C246.930138,254.597609 243.340338,267.227391 240.365169,282.281522 C240.280546,282.687065 240.173654,283.0525 240.089031,283.458043 C239.167085,287.433261 238.485646,291.408478 237.991269,295.294565 C237.9111,296.061087 237.835385,296.836522 237.768577,297.611957 C237.461262,300.2725 237.225208,302.866196 237.069323,305.401957 C237.162854,303.797609 237.372185,302.077391 237.523615,300.410652 C237.358823,302.362609 237.180669,304.38587 237.033692,306.484891 C237.051508,306.115 237.047054,305.771848 237.069323,305.401957 C237.047054,305.843152 237.033692,306.266522 237.015877,306.707717 C236.788731,309.952065 236.610577,313.254348 236.592762,316.280326 L236.748646,315.892609 C236.419062,319.235 236.191915,322.608587 236.191915,326.026739 C236.191915,382.46413 271.118977,408 315.073985,408 C332.871554,408 362.039792,400.455109 382.411685,378.783043 L382.171177,378.506739 C382.206808,378.471087 382.242438,378.435435 382.278069,378.399783 L377.619346,372.11163 C357.670569,389.496522 338.314154,392.344239 324.378069,392.344239 C286.382308,392.344239 265.801085,370.364674 259.2183,344.106848 C257.703992,337.840978 256.955746,331.365652 256.955746,324.921522 C256.955746,286.042826 278.352023,251.268587 311.087792,239.1825 C313.207823,238.482826 315.327854,237.814348 317.483515,237.288478 C322.765777,236.005 328.128208,235.269674 333.4461,235.060217 C335.232092,234.997826 337.013631,234.988913 338.777354,235.037935 C338.986685,235.046848 339.196015,235.051304 339.400892,235.055761 C339.400892,235.055761 339.405346,235.055761 339.405346,235.060217 C340.247123,235.086957 341.079992,235.140435 341.917315,235.19837 C347.083777,235.554891 352.129985,236.42837 356.935685,237.805435 C358.895377,238.366957 360.797169,239.030978 362.667785,239.757391 C363.015185,239.904457 363.371492,240.047065 363.718892,240.198587 C364.462685,240.50163 365.166392,240.880435 365.896823,241.214674 C373.704415,245.105217 380.331738,250.613478 385.315592,257.521087 C386.322162,259.014022 387.319823,260.51587 388.170508,262.115761 C389.212708,264.072174 390.134654,266.099891 390.954162,268.185543 C392.285862,271.58587 393.310246,275.119891 394.0674,278.738587 C394.664215,281.60413 395.024977,284.518696 395.274392,287.442174 C395.318931,288.435978 395.416915,289.4075 395.416915,290.41913 C395.416915,303.56587 393.417138,314.083261 390.210369,322.203043 C387.720669,328.103478 384.464908,333.273043 380.456446,337.119022 C380.496531,337.101196 380.532162,337.078913 380.567792,337.061087 C375.962515,341.317065 370.751515,343.420543 365.607323,343.420543 C360.895154,343.420543 358.325285,339.989022 360.681369,327.118587 C366.039346,298.360652 371.397323,273.047609 373.330292,265.961739 C368.823,265.961739 366.466915,265.74337 363.683262,264.892174 C359.821777,263.818152 351.671238,262.530217 347.1684,262.530217 C330.439754,262.530217 308.566915,272.61087 298.060292,283.342174 C283.260162,298.146739 277.902185,315.741087 277.683946,331.615217 C277.256377,348.353913 283.692185,356.727717 290.987585,356.727717 C304.277862,356.727717 323.367046,342.774348 331.945154,329.048261 L332.377177,329.476087 L333.103154,330.603587 L331.566577,336.98087 C329.206038,350.078587 335.370162,356.727717 349.956508,356.727717 C365.473708,356.727717 378.9555,351.500217 389.337415,342.542609 C402.543069,333.87913 412.101023,330.11337 412.101023,330.11337 C412.101023,330.11337 402.765762,330.11337 402.765762,328.660543 C402.765762,327.203261 409.771662,326.619457 409.771662,326.619457 C436.873315,324.573913 450.849485,305.303913 450.849485,305.303913 C439.193769,311.422717 428.121508,307.63913 428.121508,307.63913 C444.1509,305.593587 446.204123,295.414891 462.229062,276.17163 C478.249546,256.92837 491.375031,255.765217 491.375031,255.765217 C486.800931,255.426522 478.614762,256.255435 469.2216,257.628043 C486.141762,241.62913 502.055354,220.884022 516.200769,193.422935 C502.692254,217.965 481.393962,229.939674 456.376708,237.079022 C446.685138,239.842065 436.432385,241.883152 425.8545,243.643478 C430.446415,241.187935 435.127408,238.603152 439.737138,235.942609 C448.831892,230.675 457.231846,224.841413 465.538269,217.942717 C477.915508,207.661522 490.096777,195.000543 504.064038,178.257391 C508.900915,172.455 513.964938,166.153478 519.322915,159.308261 C519.946454,158.515 520.556631,157.721739 521.193531,156.910652 C553.421562,115.45163 578.211669,49.8961957 578.211669,49.8961957 C578.211669,49.8961957 566.195192,73.2751087 548.811831,97.7325 L548.811831,97.7325 Z" id="Fill-9" fill="#343433"></path>
                <polyline id="Fill-10" fill="#343433" points="34.2723462 162.534783 43.1355 225.041957 43.3715538 225.041957 52.2391615 162.534783 83.6699538 162.534783 83.6699538 268.078587 63.1065462 268.078587 63.1065462 189.438804 62.8749462 189.438804 51.1746923 268.078587 35.3412692 268.078587 23.6365615 189.438804 23.4005077 189.438804 23.4005077 268.078587 2.84155385 268.078587 2.84155385 162.534783 34.2723462 162.534783"></polyline>
                <polyline id="Fill-11" fill="#343433" points="87.0058846 266.015217 103.400492 266.015217 103.400492 164.901196 87.0058846 164.901196 87.0058846 162.828913 134.568508 162.828913 134.568508 164.901196 118.1739 164.901196 118.1739 266.015217 134.568508 266.015217 134.568508 268.078587 87.0058846 268.078587 87.0058846 266.015217"></polyline>
                <polyline id="Fill-12" fill="#343433" points="161.834954 162.534783 175.998185 227.550978 176.234238 227.550978 176.234238 162.534783 196.793192 162.534783 196.793192 268.078587 172.688977 268.078587 158.053638 202.888587 157.817585 202.888587 157.817585 268.078587 137.258631 268.078587 137.258631 162.534783 161.834954 162.534783"></polyline>
                <path d="M1.57220769,380.320543 L13.0453154,380.320543 L13.0453154,279.224348 L1.57220769,279.224348 L1.29606923,277.156522 L60.8083615,277.156522 L61.0845,302.723587 L59.5791,302.723587 C58.6794231,298.882065 57.7173923,295.504022 56.6841,292.602826 C55.6508077,289.688261 54.4081846,287.232717 52.9651385,285.205 C51.5087308,283.186196 49.7850923,281.688804 47.7942231,280.703913 C45.7899923,279.719022 43.3760077,279.224348 40.5522692,279.224348 L28.3531846,279.224348 L28.3531846,327.11413 L29.8318615,327.11413 C32.1033231,327.11413 34.3124308,326.815543 35.898,326.21837 C37.4835692,325.634565 38.8464462,324.524891 39.9821769,322.893804 C41.1223615,321.27163 42.0888462,319.052283 42.8771769,316.244674 C43.6744154,313.441522 44.4449308,309.822826 45.2020846,305.38413 L46.3422692,305.38413 L46.3422692,351.348696 L45.2020846,351.348696 C44.7210692,348.496522 44.2222385,345.729022 43.7055923,343.072935 C43.1889462,340.416848 42.4674231,338.050435 41.5365692,335.978152 C40.6057154,333.910326 39.3630923,332.261413 37.8131538,331.026957 C36.2632154,329.796957 34.2456231,329.181957 31.7648308,329.181957 L28.3531846,329.181957 L28.3531846,380.320543 L39.8307462,380.320543 L39.8307462,382.38837 L1.57220769,382.38837 L1.57220769,380.320543" id="Fill-13" fill="#343433"></path>
                <path d="M88.5023769,352.975326 C88.5023769,358.104783 89.0858308,361.522935 90.2750077,363.247609 C91.4552769,364.972283 93.0675692,365.832391 95.1163385,365.832391 C97.1606538,365.832391 98.7774,364.972283 99.9576692,363.247609 C101.142392,361.522935 101.7303,358.104783 101.7303,352.975326 L101.7303,276.857935 L123.710031,276.857935 L123.710031,346.032065 C123.710031,353.416522 123.082038,359.575435 121.8216,364.504348 C120.561162,369.428804 118.730631,373.36837 116.325554,376.3275 C113.924931,379.282174 110.949762,381.305435 107.4045,382.38837 C103.859238,383.475761 99.7617,384.015 95.1163385,384.015 C90.5466923,384.015 86.4714231,383.475761 82.8860769,382.38837 C79.3007308,381.305435 76.3077462,379.282174 73.9071231,376.3275 C71.5020462,373.36837 69.6670615,369.428804 68.4110769,364.504348 C67.1506385,359.575435 66.5226462,353.416522 66.5226462,346.032065 L66.5226462,276.857935 L88.5023769,276.857935 L88.5023769,352.975326" id="Fill-14" fill="#343433"></path>
                <polyline id="Fill-15" fill="#343433" points="179.106969 276.857935 179.106969 299.323261 151.119 299.323261 151.119 317.349891 177.329885 317.349891 177.329885 338.937283 151.119 338.937283 151.119 359.923043 180.166985 359.923043 180.166985 382.38837 129.134815 382.38837 129.134815 276.857935 179.106969 276.857935"></polyline>
                <path d="M182.652231,380.302717 L192.553131,380.302717 L192.553131,278.546957 L182.652231,278.546957 L182.652231,276.465761 L216.2565,276.465761 L216.2565,278.546957 L206.351146,278.546957 L206.351146,380.302717 L217.369962,380.302717 C222.603231,380.302717 226.709677,377.575326 229.684846,372.120543 C232.655562,366.670217 234.824585,359.232283 236.191915,349.806739 L237.634962,349.806739 L237.634962,382.38837 L182.652231,382.38837 L182.652231,380.302717" id="Fill-16" fill="#343433"></path>
                <path d="M231.648992,248.247065 C233.782385,248.247065 235.470392,247.872717 236.730831,247.132935 C237.991269,246.397609 238.957754,244.846739 239.625831,242.47587 C240.298362,240.11837 240.725931,236.767065 240.9219,232.43087 C241.122323,228.09913 241.220308,222.381413 241.220308,215.304457 C241.220308,208.209674 241.122323,202.496413 240.9219,198.160217 C240.725931,193.824022 240.298362,190.472717 239.625831,188.106304 C238.957754,185.744348 237.991269,184.193478 236.730831,183.453696 C235.470392,182.713913 233.782385,182.344022 231.648992,182.344022 L227.279769,182.344022 L227.279769,248.247065 L231.648992,248.247065 L231.648992,248.247065 Z M238.454469,162.539239 C244.836831,162.539239 249.798415,163.996522 253.352585,166.897717 C256.929023,169.807826 259.592423,173.702826 261.365054,178.573804 C263.133231,183.453696 264.219969,189.068913 264.611908,195.423913 C265.0083,201.778913 265.199815,208.410217 265.199815,215.304457 C265.199815,222.185326 265.0083,228.807717 264.611908,235.167174 C264.219969,241.522174 263.133231,247.132935 261.365054,252.00837 C259.592423,256.92837 256.929023,260.818913 253.352585,263.715652 C249.798415,266.625761 244.836831,268.083043 238.454469,268.083043 L206.538208,268.083043 L206.538208,162.539239 L238.454469,162.539239 L238.454469,162.539239 Z" id="Fill-17" fill="#343433"></path>
            </g>
        </g>
    </g>
</svg>