<?xml version="1.0" encoding="UTF-8" standalone="no"?>
<svg width="90px" height="108px" viewBox="0 0 90 108" version="1.1" xmlns="http://www.w3.org/2000/svg" xmlns:xlink="http://www.w3.org/1999/xlink">
    <!-- Generator: Sketch 3.8.3 (29802) - http://www.bohemiancoding.com/sketch -->
    <title>AMF @ icon only 1C black</title>
    <desc>Created with Sketch.</desc>
    <defs>
        <polygon id="path-1" points="0.0350649351 108 89.7568831 108 89.7568831 0.584021739 0.0350649351 0.584021739"></polygon>
    </defs>
    <g id="Welcome" stroke="none" stroke-width="1" fill="none" fill-rule="evenodd">
        <g id="Desktop-HD" transform="translate(-675.000000, -3959.000000)">
            <g id="Group-8" transform="translate(0.000000, 3517.000000)">
                <g id="AMF-@-icon-only-1C-black" transform="translate(675.000000, 442.000000)">
                    <mask id="mask-2" fill="white">
                        <use xlink:href="#path-1"></use>
                    </mask>
                    <g id="Clip-2"></g>
                    <path d="M20.5685065,88.2753261 C19.9501948,88.2753261 19.5574675,87.710087 19.5574675,86.2403478 C19.5574675,80.3068043 21.3013636,76.464 22.822013,74.5423043 C23.7214286,73.467 24.6231818,72.6810652 25.6342208,72.7356522 L25.7487662,72.7333043 C26.5909091,72.7333043 27.2664935,73.0156304 27.7164935,73.5808696 C27.4353896,75.5583261 26.5348052,78.894 25.972013,81.324587 C24.0031169,86.2403478 21.5824675,88.2753261 20.5685065,88.2753261 L20.5685065,88.2753261 Z M82.042013,26.271587 C77.2375325,33.0597391 72.5096104,37.5910435 68.3380519,40.6731522 C67.4772078,41.309413 66.6391558,41.8846304 65.8291558,42.4052609 C64.1851948,43.4617826 62.6557792,44.2917391 61.2771429,44.9561739 C60.9913636,45.0935217 60.7184416,45.2179565 60.4461039,45.3418043 C58.8319481,45.9622174 54.1507792,47.7653478 49.2416883,48.8606087 C47.7362338,49.1969348 44.5733766,49.9858043 41.2445455,50.6842826 C59.8248701,41.540087 83.8087013,22.653587 89.6873377,0.584021739 C83.7298052,13.1818696 73.2185065,21.2660217 61.4571429,28.6828043 C56.5924675,31.7502391 51.5150649,34.7038043 46.4587013,37.8146739 C47.7637013,36.6554348 49.1867532,35.1974348 50.520974,33.7470652 C49.3708442,34.3334348 48.2037662,34.9027826 47.025,35.4580435 C45.3559091,36.2433913 43.6611039,37.002913 41.9569481,37.7506957 C41.7734416,37.8316957 41.5881818,37.9109348 41.4046753,37.9907609 C41.9055195,35.9616522 42.4309091,33.0562174 41.9569481,32.3371957 C41.8470779,33.2346522 40.8179221,36.0896087 39.2551948,38.9257826 C32.2685065,41.943913 25.2280519,44.901 19.0858442,48.8089565 C18.6703247,48.4544348 19.2833766,47.6673261 20.1097403,46.4018478 C22.177987,43.2363913 29.894026,37.6403478 29.894026,37.6403478 C20.8472727,41.6228478 14.1411039,48.4409348 11.5591558,52.0031739 C9.88246753,54.3169565 7.03344156,58.1838261 4.55084416,63.908413 C4.46084416,64.1161957 4.3761039,64.3462826 4.28727273,64.5599348 C2.81805195,67.5921522 1.87655844,70.9190217 1.09577922,74.883913 C1.07298701,74.9907391 1.04551948,75.087 1.02272727,75.1938261 C0.780779221,76.2415435 0.602532468,77.288087 0.472792208,78.3117391 C0.451753247,78.5136522 0.431298701,78.717913 0.414350649,78.921587 C0.333116883,79.623587 0.271753247,80.3068043 0.230844156,80.973587 C0.254805195,80.5521522 0.310324675,80.0990217 0.349480519,79.6599783 C0.305649351,80.1735652 0.260064935,80.7065217 0.221493506,81.2594348 C0.226168831,81.162 0.225,81.0710217 0.230844156,80.973587 C0.225,81.0909783 0.221493506,81.201913 0.216818182,81.3175435 C0.156623377,82.1727391 0.109285714,83.0431957 0.105194805,83.8396957 L0.146103896,83.7375652 C0.0596103896,84.618 0,85.5066522 0,86.4076304 C0,101.272891 9.16597403,108 20.7011688,108 C25.3718182,108 33.0264935,106.012565 38.3727273,100.304413 L38.3101948,100.231043 C38.318961,100.221652 38.3283117,100.212848 38.3376623,100.203457 L37.1150649,98.5470652 C31.8804545,103.125913 26.8007143,103.87663 23.1428571,103.87663 C13.1721429,103.87663 7.77097403,98.0863043 6.04285714,91.1701957 C5.64545455,89.519087 5.44909091,87.8133913 5.44909091,86.1165 C5.44909091,75.8746957 11.0641558,66.7146522 19.6556494,63.531587 C20.2114286,63.3466957 20.7683766,63.1700217 21.3335065,63.0326739 C22.7203247,62.694587 24.1275974,62.5008913 25.5225974,62.4457174 C25.9918831,62.4286957 26.4582468,62.4263478 26.9216883,62.4386739 C26.9766234,62.4410217 27.0315584,62.4433696 27.0853247,62.4445435 C27.0853247,62.4445435 27.0864935,62.4445435 27.0864935,62.4457174 C27.307987,62.4527609 27.5271429,62.4662609 27.7462987,62.4815217 C29.1021429,62.5754348 30.4258442,62.8055217 31.6875974,63.1682609 C32.2012987,63.315587 32.700974,63.491087 33.1918831,63.6824348 C33.2830519,63.7217609 33.3765584,63.7581522 33.4671429,63.7986522 C33.6635065,63.8784783 33.847013,63.9782609 34.0387013,64.0668913 C36.0876623,65.0917174 37.8274675,66.542087 39.1353896,68.3622391 C39.398961,68.7555 39.6613636,69.1511087 39.884026,69.5719565 C40.1581169,70.0878913 40.4000649,70.6220217 40.6145455,71.1708261 C40.964026,72.0665217 41.2334416,72.9974348 41.4321429,73.9512391 C41.5881818,74.7054783 41.6828571,75.4732174 41.7488961,76.2438913 C41.7605844,76.505087 41.7857143,76.761 41.7857143,77.0280652 C41.7857143,80.4911087 41.2620779,83.2609565 40.4193506,85.3998261 C39.7665584,86.9546739 38.9115584,88.3152391 37.8601948,89.328913 C37.8707143,89.3242174 37.8794805,89.3183478 37.8888312,89.3136522 C36.6802597,90.4353261 35.3127273,90.9888261 33.9633117,90.9888261 C32.7261039,90.9888261 32.0516883,90.0855 32.67,86.6946522 C34.0766883,79.1188043 35.4827922,72.4515652 35.9894805,70.5850435 C34.8072078,70.5850435 34.1883117,70.5281087 33.4577922,70.3033043 C32.4444156,70.0198043 30.3048701,69.6817174 29.1237662,69.6817174 C24.7336364,69.6817174 18.9935065,72.3371087 16.2368182,75.1638913 C12.3527922,79.0630435 10.9461039,83.6976522 10.8894156,87.8797174 C10.7772078,92.2889348 12.4655844,94.4947174 14.3801299,94.4947174 C17.8679221,94.4947174 22.8775325,90.8191957 25.1287013,87.2035435 L25.2414935,87.3156522 L25.4325974,87.6126522 L25.0293506,89.2931087 C24.411039,92.7426522 26.0281169,94.4947174 29.8554545,94.4947174 C33.9282468,94.4947174 37.4662987,93.1177174 40.1908442,90.7569783 C43.6564286,88.4760652 46.1641558,87.4841087 46.1641558,87.4841087 C46.1641558,87.4841087 43.7148701,87.4841087 43.7148701,87.101413 C43.7148701,86.7175435 45.5534416,86.5637609 45.5534416,86.5637609 C52.6657792,86.0249348 56.3335714,80.9483478 56.3335714,80.9483478 C53.2741558,82.5607174 50.3696104,81.5628913 50.3696104,81.5628913 C54.5756494,81.0240652 55.1144805,78.3440217 59.3193506,73.2744783 C63.5242208,68.2055217 66.9681818,67.8991304 66.9681818,67.8991304 C65.7683766,67.809913 63.6200649,68.0288478 61.155,68.3898261 C65.5948052,64.1754783 69.7716234,58.710913 73.4832468,51.4778478 C69.9381818,57.9431739 64.3494156,61.0963043 57.7840909,62.9763261 C55.2395455,63.7047391 52.5494805,64.2423913 49.7735065,64.7066739 C50.9785714,64.0598478 52.207013,63.3789783 53.4167532,62.6775652 C55.8035065,61.29 58.0079221,59.7539348 60.1877922,57.9361304 C63.4365584,55.2285 66.6327273,51.893413 70.2987662,47.4830217 C71.5681169,45.954587 72.8964935,44.2946739 74.3031818,42.4915435 C74.4662338,42.282 74.6269481,42.0742174 74.7935065,41.8599783 C83.2517532,30.9384783 89.7568831,13.6702174 89.7568831,13.6702174 C89.7568831,13.6702174 86.6033766,19.8291522 82.042013,26.271587 L82.042013,26.271587 Z" id="Fill-1" fill="#9B9B9B" mask="url(#mask-2)"></path>
                </g>
            </g>
        </g>
    </g>
</svg>