<?xml version="1.0" encoding="UTF-8" standalone="no"?>
<svg width="193px" height="57px" viewBox="0 0 193 57" version="1.1" xmlns="http://www.w3.org/2000/svg" xmlns:xlink="http://www.w3.org/1999/xlink">
    <!-- Generator: Sketch 3.8.3 (29802) - http://www.bohemiancoding.com/sketch -->
    <title>Group 9</title>
    <desc>Created with Sketch.</desc>
    <defs></defs>
    <g id="Welcome" stroke="none" stroke-width="1" fill="none" fill-rule="evenodd">
        <g id="Desktop-HD" transform="translate(-223.000000, -35.000000)" fill="#FFFFFF">
            <g id="Group-10">
                <g id="Group-9" transform="translate(223.000000, 35.000000)">
                    <polyline id="Fill-1" points="11.7002295 16.8640833 14.9996858 40.1359167 15.0877486 40.1359167 18.3872049 16.8640833 30.0879617 16.8640833 30.0879617 56.1618889 22.433877 56.1618889 22.433877 26.8791944 22.3468689 26.8791944 17.9911858 56.1618889 12.096776 56.1618889 7.74162022 26.8791944 7.65355738 26.8791944 7.65355738 56.1618889 0 56.1618889 0 16.8640833 11.7002295 16.8640833"></polyline>
                    <polyline id="Fill-4" points="31.3303333 55.3913333 37.4330355 55.3913333 37.4330355 17.7438889 31.3303333 17.7438889 31.3303333 16.9738611 49.0346557 16.9738611 49.0346557 17.7438889 42.9319536 17.7438889 42.9319536 55.3913333 49.0346557 55.3913333 49.0346557 56.1618889 31.3303333 56.1618889 31.3303333 55.3913333"></polyline>
                    <polyline id="Fill-5" points="59.185612 16.8640833 64.4567268 41.0711389 64.5453169 41.0711389 64.5453169 16.8640833 72.1988743 16.8640833 72.1988743 56.1618889 63.2259563 56.1618889 57.7776612 31.8872778 57.6901257 31.8872778 57.6901257 56.1618889 50.0355137 56.1618889 50.0355137 16.8640833 59.185612 16.8640833"></polyline>
                    <path d="M83.6855383,48.7761667 C84.4775765,48.7761667 85.1077268,48.6384167 85.5765164,48.3639722 C86.0458333,48.0879444 86.4054672,47.5105556 86.6548907,46.6291667 C86.9037869,45.7488333 87.0646202,44.50275 87.1389727,42.8872222 C87.2106885,41.2732778 87.2481284,39.1452778 87.2481284,36.5100833 C87.2481284,33.8690833 87.2106885,31.7416111 87.1389727,30.1260833 C87.0646202,28.5131944 86.9037869,27.265 86.6548907,26.3846667 C86.4054672,25.5043333 86.0458333,24.9269444 85.5765164,24.6509167 C85.1077268,24.3759444 84.4775765,24.2376667 83.6855383,24.2376667 L82.0582213,24.2376667 L82.0582213,48.7761667 L83.6855383,48.7761667 L83.6855383,48.7761667 Z M86.2187951,16.8640833 C88.5938552,16.8640833 90.4415929,17.4055833 91.7641175,18.4875278 C93.0945519,19.5694722 94.0853907,21.0192778 94.7445437,22.8343056 C95.4047514,24.6509167 95.8076257,26.7419722 95.9547486,29.1090556 C96.1013443,31.4750833 96.1741148,33.9429722 96.1741148,36.5100833 C96.1741148,39.0724444 96.1013443,41.53875 95.9547486,43.9058333 C95.8076257,46.2713333 95.4047514,48.3639722 94.7445437,50.1795278 C94.0853907,52.0066944 93.0945519,53.4570278 91.7641175,54.5373889 C90.4415929,55.6209167 88.5938552,56.1618889 86.2187951,56.1618889 L74.3366393,56.1618889 L74.3366393,16.8640833 L86.2187951,16.8640833 L86.2187951,16.8640833 Z" id="Fill-6"></path>
                    <path d="M104.700391,55.1665 L108.972757,55.1665 L108.972757,17.5238056 L104.700391,17.5238056 L104.59809,16.7543056 L126.751959,16.7543056 L126.85426,26.2748889 L126.293716,26.2748889 C125.960448,24.8440833 125.600814,23.5874444 125.215869,22.5049722 C124.831451,21.4225 124.370044,20.5052222 123.831648,19.7526111 C123.290615,19.0010556 122.648863,18.4426667 121.906393,18.0742778 C121.161814,17.7085278 120.263784,17.5238056 119.212303,17.5238056 L114.671003,17.5238056 L114.671003,35.3553056 L115.221527,35.3553056 C116.068407,35.3553056 116.888921,35.245 117.478995,35.0243889 C118.070123,34.8048333 118.57688,34.3910556 118.999792,33.7862222 C119.424287,33.1813889 119.782866,32.3554167 120.077112,31.3104167 C120.37294,30.2638333 120.661385,28.9164167 120.943503,27.2644722 L121.366943,27.2644722 L121.366943,44.3797778 L120.943503,44.3797778 C120.764213,43.3173611 120.578068,42.2881944 120.385068,41.2986111 C120.192596,40.3079722 119.923661,39.4276389 119.577738,38.6570833 C119.231814,37.886 118.769352,37.2721944 118.191407,36.8135556 C117.615044,36.3549167 116.864137,36.1253333 115.941322,36.1253333 L114.671003,36.1253333 L114.671003,55.1665 L118.944423,55.1665 L118.944423,55.9375833 L104.700391,55.9375833 L104.700391,55.1665" id="Fill-7"></path>
                    <path d="M137.060057,44.9861944 C137.060057,46.8941111 137.279423,48.1681667 137.719738,48.8104722 C138.159525,49.4527778 138.760145,49.7731389 139.52318,49.7731389 C140.284634,49.7731389 140.886836,49.4527778 141.326623,48.8104722 C141.76641,48.1681667 141.985776,46.8941111 141.985776,44.9861944 L141.985776,16.644 L150.168765,16.644 L150.168765,42.3985 C150.168765,45.1498056 149.933052,47.4435278 149.464262,49.2786111 C148.994418,51.1121111 148.31259,52.5798611 147.418779,53.67975 C146.523913,54.7806944 145.41759,55.5333056 144.097175,55.9375833 C142.777814,56.3402778 141.252798,56.5424167 139.52318,56.5424167 C137.822038,56.5424167 136.303877,56.3402778 134.970279,55.9375833 C133.635098,55.5333056 132.520866,54.7806944 131.627055,53.67975 C130.732189,52.5798611 130.050361,51.1121111 129.582626,49.2786111 C129.112781,47.4435278 128.878123,45.1498056 128.878123,42.3985 L128.878123,16.644 L137.060057,16.644 L137.060057,44.9861944" id="Fill-8"></path>
                    <polyline id="Fill-9" points="170.787598 16.644 170.787598 25.00875 160.36929 25.00875 160.36929 31.7226111 170.127391 31.7226111 170.127391 39.7575 160.36929 39.7575 160.36929 47.5723056 171.18309 47.5723056 171.18309 55.9375833 152.186301 55.9375833 152.186301 16.644 170.787598 16.644"></polyline>
                    <path d="M172.108014,55.1612222 L175.794525,55.1612222 L175.794525,17.2715278 L172.108014,17.2715278 L172.108014,16.4962222 L184.617156,16.4962222 L184.617156,17.2715278 L180.930645,17.2715278 L180.930645,55.1612222 L185.031631,55.1612222 C186.980087,55.1612222 188.50774,54.1457778 189.615117,52.1154167 C190.720913,50.0845278 191.529298,47.31475 192.038164,43.8055556 L192.575505,43.8055556 L192.575505,55.9375833 L172.108014,55.9375833 L172.108014,55.1612222" id="Fill-10"></path>
                    <path d="M8.73509563,6.15705556 C8.79046448,5.94541667 8.81788525,5.76122222 8.81788525,5.60447222 C8.81788525,5.46302778 8.79837432,5.30997222 8.75882514,5.14530556 C8.71980328,4.98063889 8.64914208,4.82758333 8.54736885,4.68613889 C8.44559563,4.54522222 8.3084918,4.42383333 8.13605738,4.32144444 C7.96362295,4.21958333 7.73634699,4.16838889 7.45422951,4.16838889 C6.93639891,4.16838889 6.43069672,4.31405556 5.93765027,4.60380556 C5.44354918,4.89461111 4.98108743,5.27513889 4.55026503,5.74538889 C4.1189153,6.21616667 3.7234235,6.75344444 3.36273497,7.35722222 C3.00151913,7.96152778 2.6925082,8.57375 2.4335929,9.19283333 C2.17520492,9.81297222 1.97534973,10.4130556 1.83455464,10.9930833 C1.69323224,11.5741667 1.62257104,12.084 1.62257104,12.5231111 C1.62257104,13.0255556 1.72065301,13.4335278 1.91681694,13.7470278 C2.11245355,14.0605278 2.43781148,14.2172778 2.89236339,14.2172778 C3.3469153,14.2172778 3.80937705,14.0763611 4.27974863,13.794 C4.75012022,13.5116389 5.18094262,13.1743889 5.57274317,12.7817222 C5.96454372,12.3901111 6.30150273,11.9974444 6.58362022,11.6053056 C6.86626503,11.2131667 7.04608197,10.9070556 7.12465301,10.6875 L8.37124317,7.22791667 C8.55896995,6.726 8.6802541,6.36922222 8.73509563,6.15705556 L8.73509563,6.15705556 Z M8.19459016,12.4523889 C8.09281694,12.8286944 8.04166667,13.1664722 8.04166667,13.4646667 C8.04166667,13.8726389 8.2378306,14.0763611 8.62963115,14.0763611 C8.94286066,14.0763611 9.22497814,13.9861111 9.47651093,13.8056111 C9.72646175,13.6256389 9.94213661,13.4213889 10.1224809,13.1933889 C10.3028251,12.9664444 10.4515301,12.7389722 10.5696503,12.5109722 C10.6872432,12.2840278 10.7695055,12.1230556 10.8164372,12.0285833 L11.1222842,12.1937778 C11.0431858,12.3663611 10.9261202,12.5859167 10.7695055,12.8524444 C10.6123634,13.1195 10.4082896,13.3744167 10.1583388,13.6171944 C9.90680601,13.8610278 9.61677869,14.0726667 9.28772951,14.2526389 C8.95868033,14.4331389 8.57478962,14.5233889 8.13605738,14.5233889 C7.10145082,14.5233889 6.58362022,14.0526111 6.58362022,13.1115833 C6.58362022,13.0018056 6.60734973,12.8096944 6.65428142,12.5347222 C6.70174044,12.2602778 6.76396448,12.0132778 6.84306284,11.7937222 L6.79560383,11.7937222 C6.5762377,12.06025 6.32523224,12.35475 6.04311475,12.6761667 C5.76099727,12.9975833 5.44354918,13.2963056 5.09077049,13.5702222 C4.7379918,13.8451944 4.35040984,14.0726667 3.92696995,14.2526389 C3.50405738,14.4331389 3.03368579,14.5233889 2.51585519,14.5233889 C2.18680601,14.5233889 1.86988525,14.4648056 1.56403825,14.3471111 C1.25819126,14.2294167 0.987674863,14.0494444 0.753016393,13.8056111 C0.517303279,13.5628333 0.33326776,13.2525 0.200382514,12.8761944 C0.0669699454,12.4993611 0,12.0523333 0,11.5345833 C0,10.9070556 0.125502732,10.2795278 0.376508197,9.652 C0.626986339,9.02447222 0.952871585,8.42438889 1.35205464,7.85175 C1.75176503,7.27911111 2.21422678,6.74922222 2.73943989,6.26313889 C3.26412568,5.77705556 3.79777596,5.35325 4.33880874,4.99225 C4.87931421,4.63177778 5.41190984,4.34941667 5.93765027,4.14516667 C6.46233607,3.94144444 6.92848907,3.83905556 7.33663661,3.83905556 C7.8070082,3.83905556 8.20671858,3.97258333 8.53524044,4.23963889 C8.86428962,4.50616667 9.02934153,4.85925 9.02934153,5.29783333 L9.07627322,5.29783333 L9.47651093,4.14516667 L11.1222842,4.14516667 L8.55896995,11.2759722 C8.41817486,11.6839444 8.29636339,12.0760833 8.19459016,12.4523889 L8.19459016,12.4523889 Z" id="Fill-12"></path>
                    <path d="M18.8929071,12.8408333 C18.6345191,13.1469444 18.3360546,13.4256111 17.999623,13.6757778 C17.6621366,13.9275278 17.2740273,14.13125 16.8358224,14.288 C16.3965628,14.44475 15.9024617,14.5233889 15.3540464,14.5233889 C14.7739918,14.5233889 14.2566885,14.4294444 13.8021366,14.2410278 C13.3470574,14.0526111 12.9673852,13.7976944 12.6620656,13.4762778 C12.3562186,13.1548611 12.1210328,12.7817222 11.9565082,12.3584444 C11.7914563,11.9346389 11.7097213,11.4796944 11.7097213,10.9930833 C11.7097213,10.1935 11.8974481,9.37333333 12.273429,8.53416667 C12.6499372,7.695 13.1514208,6.92602778 13.7789344,6.22777778 C14.4053934,5.53005556 15.1230792,4.95688889 15.9304098,4.50986111 C16.7372131,4.06283333 17.5719645,3.83905556 18.4341366,3.83905556 C18.7009617,3.83905556 18.9635683,3.87072222 19.2219563,3.93352778 C19.4803443,3.99633333 19.7118388,4.09819444 19.9159126,4.23963889 C20.1189317,4.38055556 20.2882022,4.57266667 20.4216148,4.81544444 C20.5539727,5.05927778 20.6209426,5.36116667 20.6209426,5.72163889 C20.6209426,6.23991667 20.4917486,6.57716667 20.2328333,6.73391667 C19.9744454,6.89066667 19.703929,6.96877778 19.4218115,6.96877778 C19.139694,6.96877778 18.9435301,6.91019444 18.8343743,6.7925 C18.7241639,6.67480556 18.6693224,6.53758333 18.6693224,6.38083333 C18.6693224,6.19241667 18.7009617,6.03988889 18.7637131,5.92166667 C18.8259372,5.80397222 18.9008169,5.69841667 18.9867705,5.60447222 C19.072724,5.51 19.1470765,5.40444444 19.2103552,5.28622222 C19.2725792,5.16852778 19.3042186,5.016 19.3042186,4.82758333 C19.3042186,4.57688889 19.2135191,4.40377778 19.0342295,4.30983333 C18.8538852,4.21588889 18.606571,4.16838889 18.2928142,4.16838889 C17.7913306,4.16838889 17.3214863,4.29452778 16.8827541,4.54522222 C16.4434945,4.79644444 16.0395656,5.13 15.6714945,5.54536111 C15.3028962,5.96125 14.9775383,6.43625 14.6954208,6.96877778 C14.4133033,7.50288889 14.1702077,8.05177778 13.9666612,8.6165 C13.7631148,9.18122222 13.6101913,9.73855556 13.508418,10.2874444 C13.4061175,10.8368611 13.3554945,11.3387778 13.3554945,11.7937222 C13.3554945,12.4682222 13.5469126,13.0408611 13.9318579,13.5116389 C14.3157486,13.9824167 14.9074044,14.2172778 15.7068251,14.2172778 C16.1455574,14.2172778 16.5494863,14.1354722 16.9175574,13.9702778 C17.2856284,13.8056111 17.6188962,13.5981944 17.9168333,13.3464444 C18.2147705,13.09575 18.4731585,12.8255278 18.6930519,12.5347222 C18.912418,12.2449722 19.0927623,11.9821389 19.2340847,11.7462222 L19.5631339,11.9346389 C19.3748798,12.2328333 19.1512951,12.5347222 18.8929071,12.8408333" id="Fill-14"></path>
                    <path d="M25.845653,1.83877778 L24.9987732,4.14516667 L27.5620874,4.14516667 L27.4676967,4.4745 L24.9043825,4.4745 L22.2240027,11.9583889 C22.1454317,12.1937778 22.067388,12.4370833 21.9888169,12.6877778 C21.9107732,12.939 21.8717514,13.1902222 21.8717514,13.4409167 C21.8717514,13.6757778 21.9302842,13.8641944 22.047877,14.0056389 C22.1654699,14.1470833 22.356888,14.2172778 22.6237131,14.2172778 C22.9063579,14.2172778 23.1721284,14.13125 23.4231339,13.9586667 C23.6741393,13.7860833 23.9014153,13.5860556 24.1049617,13.3585833 C24.3090355,13.1311111 24.4814699,12.8994167 24.622265,12.6640278 C24.7635874,12.4291667 24.8653607,12.24075 24.928112,12.0993056 L25.2107568,12.217 C25.1480055,12.3431389 25.0457049,12.5347222 24.9043825,12.7938611 C24.7635874,13.0524722 24.5753333,13.3116111 24.3401475,13.5702222 C24.1049617,13.8293611 23.8112432,14.0526111 23.4584645,14.2410278 C23.1056858,14.4294444 22.6859372,14.5233889 22.2008005,14.5233889 C21.6049262,14.5233889 21.1577568,14.37825 20.860347,14.0879722 C20.5624098,13.7976944 20.4137049,13.4488333 20.4137049,13.0408611 C20.4137049,12.7273611 20.4722377,12.3700556 20.5898306,11.97 C20.7079508,11.5699444 20.8287077,11.20525 20.9542104,10.8759167 L23.2586093,4.4745 L21.1424645,4.4745 L21.2368552,4.14516667 L23.3524727,4.14516667 L24.1993525,1.83877778 L25.845653,1.83877778" id="Fill-15"></path>
                    <path d="M30.3510956,0.681888889 C30.5620246,0.469722222 30.8246311,0.364166667 31.138388,0.364166667 C31.4521448,0.364166667 31.7136967,0.469722222 31.923571,0.681888889 C32.1339727,0.893527778 32.2399645,1.15688889 32.2399645,1.47038889 C32.2399645,1.78441667 32.1339727,2.04672222 31.923571,2.25888889 C31.7136967,2.47052778 31.4521448,2.57608333 31.138388,2.57608333 C30.8246311,2.57608333 30.5620246,2.47052778 30.3510956,2.25888889 C30.139112,2.04672222 30.0331202,1.78441667 30.0331202,1.47038889 C30.0331202,1.15688889 30.139112,0.893527778 30.3510956,0.681888889 L30.3510956,0.681888889 Z M26.9498661,4.4745 L27.0442568,4.14516667 L30.7829727,4.14516667 L28.0082022,12.1230556 C27.9296311,12.3584444 27.8510601,12.5980556 27.7730164,12.8408333 C27.6949727,13.0841389 27.6554235,13.3153056 27.6554235,13.5348611 C27.6554235,13.7232778 27.710265,13.88425 27.8204754,14.01725 C27.9296311,14.1507778 28.0941557,14.2172778 28.3135219,14.2172778 C28.5645273,14.2172778 28.8113142,14.13125 29.0549372,13.9586667 C29.2975055,13.7860833 29.5205628,13.5860556 29.7246366,13.3585833 C29.9281831,13.1311111 30.1011448,12.8994167 30.2424672,12.6640278 C30.3832623,12.4291667 30.4850355,12.24075 30.5477869,12.0993056 L30.8299044,12.217 C30.767153,12.3431389 30.669071,12.5347222 30.5356585,12.7938611 C30.4022459,13.0524722 30.2187377,13.3116111 29.9830246,13.5702222 C29.7483661,13.8293611 29.4578115,14.0526111 29.1134699,14.2410278 C28.7686011,14.4294444 28.3609809,14.5233889 27.8911366,14.5233889 C27.373306,14.5233889 26.9619945,14.4178333 26.6561475,14.2056667 C26.3508279,13.9940278 26.1979044,13.63725 26.1979044,13.1348056 C26.1979044,12.8682778 26.2448361,12.5743056 26.3386995,12.2523611 C26.4330902,11.9309444 26.5269536,11.6369722 26.6208169,11.3699167 L29.0428087,4.4745 L26.9498661,4.4745 L26.9498661,4.4745 Z" id="Fill-16"></path>
                    <path d="M33.0367486,13.3 C33.0367486,13.0329444 33.0051093,12.8017778 32.9428852,12.6054444 C32.8796066,12.4096389 32.8094727,12.2016944 32.7309016,11.9821389 L32.2373279,10.6167778 C32.0960055,10.2563056 31.9673388,9.88738889 31.8508005,9.51055556 C31.7342623,9.13425 31.6757295,8.77325 31.6757295,8.42808333 C31.6757295,7.70661111 31.9288443,6.98091667 32.4371831,6.25152778 C32.9465765,5.52161111 33.6083661,4.80383333 34.4236066,4.09819444 L34.9177077,3.67438889 L35.1291639,3.90977778 C35.0353005,4.02008333 34.882377,4.18052778 34.6709208,4.39216667 C34.4594645,4.60380556 34.2474809,4.85925 34.0360246,5.15691667 C33.8245683,5.45511111 33.6363142,5.78866667 33.4717896,6.15705556 C33.307265,6.52597222 33.2250027,6.92233333 33.2250027,7.34561111 C33.2250027,7.942 33.2988279,8.49088889 33.4485874,8.99280556 C33.5972923,9.49525 33.7808005,10.0209167 34.0012213,10.5698056 C34.1420164,10.9466389 34.2553907,11.2875833 34.3418716,11.5936944 C34.4278251,11.8992778 34.4789754,12.1858611 34.4947951,12.4523889 C34.8391366,12.1700278 35.2546667,11.8327778 35.7408579,11.4406389 C36.2265219,11.0485 36.6889836,10.6246944 37.1282432,10.16975 C37.5664481,9.71480556 37.939265,9.2245 38.2445847,8.69883333 C38.5504317,8.17369444 38.7033552,7.64380556 38.7033552,7.11022222 C38.7033552,6.74922222 38.663806,6.45525 38.5857623,6.22777778 C38.5071913,6.00083333 38.4175464,5.80080556 38.3152459,5.62769444 C38.2134727,5.45511111 38.1233005,5.29044444 38.0447295,5.13369444 C37.9666858,4.97694444 37.9276639,4.79644444 37.9276639,4.59219444 C37.9276639,4.32566667 38.0331284,4.13302778 38.2445847,4.01586111 C38.4565683,3.89816667 38.711265,3.83905556 39.0092022,3.83905556 C39.7769836,3.83905556 40.1624563,4.41222222 40.1624563,5.55697222 C40.1624563,6.07472222 40.0680656,6.58086111 39.8792842,7.07538889 C39.6910301,7.56938889 39.4479344,8.03594444 39.1499973,8.47505556 C38.8525874,8.91469444 38.5114098,9.33427778 38.1275191,9.73433333 C37.7431011,10.1343889 37.3629016,10.4990833 36.9869208,10.8284167 L35.7877896,11.8639167 C35.4112814,12.1937778 35.0980519,12.4444722 34.8470464,12.6175833 C34.596041,12.7901667 34.3534727,12.9938889 34.1182869,13.2292778 C33.8678087,13.4799722 33.6516066,13.7158889 33.4717896,13.9349167 C33.2914454,14.155 33.1543415,14.3508056 33.0599508,14.5233889 L32.7546311,14.3587222 C32.9428852,14.1233333 33.0367486,13.77025 33.0367486,13.3" id="Fill-17"></path>
                    <path d="M47.6245956,4.49825 C47.4373962,4.27869444 47.123112,4.16838889 46.6817432,4.16838889 C46.192388,4.16838889 45.724653,4.30983333 45.2780109,4.59219444 C44.8313689,4.87455556 44.4274399,5.22394444 44.0672787,5.63930556 C43.7065902,6.05519444 43.3933607,6.50275 43.1265355,6.98091667 C42.8597104,7.45961111 42.6566913,7.90294444 42.5153689,8.31038889 C42.8760574,8.37372222 43.2752404,8.40486111 43.7145,8.40486111 C44.278735,8.40486111 44.8113306,8.31883333 45.3133415,8.14572222 C45.8148251,7.97366667 46.2593579,7.74566667 46.6458852,7.46330556 C47.0329399,7.18094444 47.3382596,6.85161111 47.5660628,6.47477778 C47.7938661,6.09847222 47.9072404,5.70633333 47.9072404,5.29783333 C47.9072404,4.98486111 47.813377,4.71780556 47.6245956,4.49825 L47.6245956,4.49825 Z M47.5312596,12.5347222 C47.3424781,12.8255278 47.0840902,13.1152778 46.7529317,13.4055556 C46.4212459,13.6963611 46.0152077,13.9549722 45.5369262,14.1819167 C45.0581175,14.4093889 44.4822814,14.5233889 43.8083634,14.5233889 C43.1344454,14.5233889 42.5665191,14.4136111 42.1040574,14.1940556 C41.6415956,13.9745 41.2650874,13.6921389 40.9750601,13.3464444 C40.6850328,13.0018056 40.4735765,12.6212778 40.3406913,12.2053889 C40.206224,11.7900278 40.1392541,11.38575 40.1392541,10.9930833 C40.1392541,10.2088056 40.3322541,9.39708333 40.7166721,8.55738889 C41.1005628,7.71822222 41.6020464,6.94977778 42.221123,6.25152778 C42.8407268,5.55327778 43.5415383,4.97694444 44.326194,4.52147222 C45.1097951,4.06652778 45.9092158,3.83905556 46.7286749,3.83905556 C47.0450683,3.83905556 47.3582978,3.87441667 47.6720546,3.94513889 C47.9852842,4.01586111 48.2674016,4.12141667 48.5189344,4.26286111 C48.7688852,4.40377778 48.972959,4.58427778 49.1295738,4.80383333 C49.2861885,5.02391667 49.3652869,5.29044444 49.3652869,5.60447222 C49.3652869,6.02775 49.2508579,6.40036111 49.0246366,6.72230556 C48.7968333,7.04372222 48.5025874,7.31869444 48.1429536,7.54563889 C47.7812104,7.77311111 47.3857186,7.96575 46.9543689,8.1225 C46.5198552,8.27925 46.0969426,8.40063889 45.6898497,8.48666667 C45.2817022,8.57375 44.9094126,8.63655556 44.5724536,8.67561111 C44.2354945,8.71466667 43.9887077,8.73419444 43.8320929,8.73419444 C43.5652678,8.73419444 43.3068798,8.72680556 43.0558743,8.71044444 C42.8053962,8.69513889 42.5860301,8.67191667 42.397776,8.63972222 C42.2253415,9.14269444 42.0803279,9.64038889 41.962735,10.1343889 C41.8451421,10.6289167 41.7866093,11.1503611 41.7866093,11.69925 C41.7866093,12.5468611 42.0059754,13.1780833 42.4447077,13.5939722 C42.8834399,14.0098611 43.4402923,14.2172778 44.1142104,14.2172778 C44.615694,14.2172778 45.0581175,14.1196389 45.4430628,13.9233056 C45.8264262,13.7275 46.1639126,13.4963333 46.4571038,13.2292778 C46.7487131,12.9622222 46.9928634,12.692 47.190082,12.4170278 C47.3857186,12.1425833 47.5465519,11.92725 47.6720546,11.7699722 L47.9541721,11.9346389 C47.8608361,12.0449444 47.7195137,12.2449722 47.5312596,12.5347222 L47.5312596,12.5347222 Z" id="Fill-18"></path>
                </g>
            </g>
        </g>
    </g>
</svg>